<svg id="Layer_2" data-name="Layer 2" xmlns="http://www.w3.org/2000/svg" width="100" height="100" viewBox="0 0 48 48">
  <g id="invisible_box" data-name="invisible box">
    <rect id="Rectangle_21" data-name="Rectangle 21" width="48" height="48" fill="none"/>
  </g>
  <g id="icons_Q2" data-name="icons Q2">
    <path id="Path_6" data-name="Path 6" d="M46,24A22,22,0,0,1,2.1,26H27.2l-4.6,4.6a1.9,1.9,0,0,0,.2,3,2,2,0,0,0,2.7-.3l7.9-7.9a1.9,1.9,0,0,0,0-2.8l-7.9-8a2.3,2.3,0,0,0-2.7-.3,2,2,0,0,0-.2,3.1L27.2,22H2.1A22,22,0,0,1,46,24Z" fill="#fff"/>
  </g>
</svg>
